<?xml version="1.0" encoding="UTF-8"?>
<svg id="Layer_2" data-name="Layer 2" xmlns="http://www.w3.org/2000/svg" viewBox="0 0 200.79 58.8">
  <g id="Layer_1-2" data-name="Layer 1">
    <g>
      <rect width="58.8" height="58.8" style="fill: #b22425;"/>
      <path d="M24.87,40.33v-18.14h3.24l.29,3.42c.43-.82.97-1.51,1.6-2.07.64-.56,1.4-1,2.3-1.31.9-.31,1.9-.47,3.01-.47v3.78h-1.3c-.74,0-1.45.1-2.12.29s-1.26.5-1.76.94-.91,1.01-1.21,1.75c-.3.73-.45,1.66-.45,2.79v9.04h-3.6Z" style="fill: #fff;"/>
      <path d="M19.36,46.38c-1.68,0-3.03-.46-4.06-1.38-1.03-.92-1.54-2.28-1.54-4.08,0-.79.06-1.51.19-2.15.13-.64.26-1.31.39-1.99.13-.69.19-1.45.19-2.29,0-.58-.1-1.12-.31-1.63-.21-.5-.58-.93-1.12-1.29-.54-.36-1.28-.62-2.24-.79v-2.8c.96-.16,1.7-.42,2.24-.77.54-.35.91-.78,1.12-1.29.21-.51.31-1.06.31-1.64,0-.86-.06-1.63-.19-2.29-.13-.67-.26-1.32-.39-1.98-.13-.65-.19-1.36-.19-2.13,0-1.84.51-3.21,1.54-4.11,1.03-.9,2.38-1.35,4.06-1.35h2v2.97h-1.37c-.91,0-1.6.21-2.08.63-.48.42-.72,1.13-.72,2.13,0,.65.06,1.29.17,1.91s.23,1.27.35,1.96c.12.69.17,1.49.17,2.4,0,1.21-.3,2.26-.91,3.15-.61.89-1.6,1.48-2.98,1.79v.07c1.38.28,2.37.87,2.98,1.77.61.9.91,1.97.91,3.2,0,.89-.06,1.67-.17,2.36-.12.69-.23,1.34-.35,1.96s-.17,1.25-.17,1.91c0,1,.24,1.72.72,2.15.48.43,1.17.65,2.08.65h1.37v2.98h-2Z" style="fill: #fff;"/>
      <path d="M39.66,46.38h-2.03v-2.98h1.4c.91,0,1.6-.22,2.08-.65.48-.43.72-1.15.72-2.15,0-.65-.06-1.29-.17-1.91-.12-.62-.23-1.27-.35-1.96-.12-.69-.18-1.48-.18-2.36,0-1.24.31-2.3.93-3.2.62-.9,1.59-1.49,2.92-1.77v-.07c-1.33-.3-2.3-.9-2.92-1.79-.62-.89-.93-1.94-.93-3.15,0-.91.06-1.71.18-2.4.12-.69.23-1.34.35-1.96.12-.62.17-1.25.17-1.91,0-1-.24-1.71-.72-2.13-.48-.42-1.17-.63-2.08-.63h-1.4v-2.97h2.03c1.66,0,3,.45,4.02,1.35,1.03.9,1.54,2.27,1.54,4.11,0,.77-.06,1.48-.19,2.13-.13.65-.26,1.31-.39,1.98-.13.67-.19,1.43-.19,2.29,0,.58.12,1.13.35,1.64.23.51.61.95,1.14,1.29.53.35,1.27.61,2.22.77v2.8c-.96.16-1.7.43-2.22.79-.52.36-.9.79-1.14,1.29-.23.5-.35,1.04-.35,1.63,0,.84.06,1.6.19,2.29.13.69.26,1.35.39,1.99.13.64.19,1.36.19,2.15,0,1.8-.51,3.16-1.54,4.08-1.03.92-2.37,1.38-4.02,1.38Z" style="fill: #fff;"/>
      <g>
        <path d="M69.35,40.33v-18.14h3.24l.29,3.42c.43-.82.97-1.51,1.6-2.07.64-.56,1.4-1,2.3-1.31.9-.31,1.9-.47,3.01-.47v3.78h-1.3c-.74,0-1.45.1-2.12.29-.67.19-1.26.5-1.76.94-.5.43-.91,1.01-1.21,1.75-.3.73-.45,1.66-.45,2.79v9.04h-3.6Z" style="fill: #fff;"/>
        <path d="M88.86,40.76c-1.39,0-2.62-.29-3.67-.86-1.06-.58-1.86-1.44-2.41-2.59-.55-1.15-.83-2.6-.83-4.36v-10.76h3.6v10.37c0,1.73.37,3.02,1.1,3.87.73.85,1.81,1.28,3.22,1.28.94,0,1.78-.23,2.52-.68.74-.46,1.34-1.11,1.78-1.96.44-.85.67-1.9.67-3.15v-9.72h3.6v18.14h-3.24l-.22-3.1c-.55,1.1-1.36,1.97-2.43,2.59s-2.3.94-3.69.94Z" style="fill: #fff;"/>
        <path d="M109.38,40.76c-1.7,0-3.22-.41-4.54-1.24-1.32-.83-2.34-1.96-3.06-3.4s-1.08-3.06-1.08-4.86.36-3.49,1.08-4.91c.72-1.43,1.75-2.55,3.08-3.37,1.33-.82,2.85-1.22,4.55-1.22,1.46,0,2.73.28,3.8.85,1.07.56,1.9,1.35,2.5,2.36v-10.55h3.6v25.92h-3.24l-.32-2.84c-.38.58-.87,1.11-1.46,1.6-.59.49-1.28.89-2.09,1.21s-1.75.47-2.83.47ZM110.03,37.63c1.13,0,2.12-.27,2.97-.81.85-.54,1.51-1.28,1.98-2.23.47-.95.7-2.06.7-3.33s-.23-2.39-.7-3.35c-.47-.96-1.13-1.7-1.98-2.23-.85-.53-1.84-.79-2.97-.79s-2.09.26-2.95.79c-.86.53-1.53,1.27-2,2.23-.47.96-.7,2.06-.7,3.31s.23,2.42.7,3.37c.47.95,1.13,1.69,2,2.23.86.54,1.85.81,2.95.81Z" style="fill: #fff;"/>
        <path d="M129,40.76c-1.49,0-2.72-.25-3.71-.76-.98-.5-1.72-1.18-2.2-2.03-.48-.85-.72-1.78-.72-2.79,0-1.18.31-2.19.94-3.04.62-.85,1.51-1.51,2.66-1.96s2.54-.68,4.18-.68h4.68c0-1.06-.16-1.93-.47-2.63-.31-.7-.77-1.22-1.39-1.58s-1.39-.54-2.32-.54c-1.08,0-2,.26-2.77.77-.77.52-1.25,1.3-1.44,2.36h-3.6c.14-1.3.58-2.4,1.31-3.31.73-.91,1.67-1.61,2.83-2.09,1.15-.48,2.38-.72,3.67-.72,1.7,0,3.13.3,4.28.9,1.15.6,2.02,1.45,2.61,2.54.59,1.09.88,2.39.88,3.91v11.23h-3.13l-.29-3.06c-.24.48-.55.94-.92,1.37-.37.43-.8.8-1.3,1.12-.49.31-1.05.56-1.67.74-.62.18-1.33.27-2.12.27ZM129.69,37.85c.77,0,1.46-.16,2.09-.47.62-.31,1.16-.74,1.6-1.3.44-.55.79-1.16,1.03-1.84.24-.67.37-1.38.4-2.12v-.07h-4.28c-1.06,0-1.9.12-2.54.36-.64.24-1.1.58-1.39,1.03s-.43.95-.43,1.53.14,1.08.41,1.51c.28.43.68.77,1.22,1.01.54.24,1.17.36,1.89.36Z" style="fill: #fff;"/>
        <path d="M148.84,40.76c-1.58,0-2.95-.26-4.09-.77-1.14-.52-2.04-1.22-2.7-2.12s-1.06-1.96-1.21-3.19h3.64c.12.58.35,1.1.7,1.58.35.48.83.86,1.44,1.15s1.35.43,2.21.43c.77,0,1.41-.11,1.93-.34.52-.23.9-.54,1.15-.94.25-.4.38-.82.38-1.28,0-.67-.16-1.18-.49-1.53-.32-.35-.81-.63-1.46-.85s-1.43-.4-2.34-.54c-.79-.17-1.58-.37-2.38-.61s-1.49-.56-2.11-.95c-.61-.4-1.1-.88-1.46-1.46-.36-.58-.54-1.3-.54-2.16,0-1.03.27-1.96.81-2.79s1.33-1.48,2.36-1.94c1.03-.47,2.24-.7,3.64-.7,2.02,0,3.64.47,4.86,1.42,1.22.95,1.96,2.31,2.2,4.09h-3.49c-.12-.82-.49-1.45-1.1-1.91-.61-.46-1.45-.68-2.5-.68s-1.82.21-2.38.63c-.55.42-.83.95-.83,1.6,0,.43.16.82.49,1.15.32.34.79.62,1.39.86.6.24,1.34.44,2.23.61,1.27.24,2.41.55,3.42.92,1.01.37,1.82.91,2.43,1.6.61.7.92,1.69.92,2.99,0,1.15-.29,2.15-.88,3.01-.59.85-1.42,1.52-2.48,2-1.07.48-2.32.72-3.76.72Z" style="fill: #fff;"/>
        <path d="M166.91,40.76c-1.73,0-3.28-.4-4.64-1.19-1.37-.79-2.44-1.9-3.2-3.33-.77-1.43-1.15-3.08-1.15-4.95s.39-3.59,1.17-5.02c.78-1.43,1.85-2.54,3.22-3.33,1.37-.79,2.9-1.19,4.61-1.19s3.26.4,4.61,1.19c1.34.79,2.41,1.9,3.2,3.31.79,1.42,1.19,3.08,1.19,5s-.4,3.56-1.19,4.99c-.79,1.43-1.87,2.54-3.22,3.33-1.36.79-2.89,1.19-4.59,1.19ZM166.88,37.67c.96,0,1.84-.24,2.65-.72.8-.48,1.46-1.2,1.96-2.16.5-.96.76-2.14.76-3.53s-.25-2.6-.74-3.55c-.49-.95-1.13-1.66-1.93-2.14-.79-.48-1.67-.72-2.63-.72s-1.85.24-2.66.72c-.82.48-1.47,1.19-1.96,2.14-.49.95-.74,2.13-.74,3.55s.25,2.57.74,3.53c.49.96,1.13,1.68,1.93,2.16.79.48,1.67.72,2.63.72Z" style="fill: #fff;"/>
        <path d="M176.81,25.21v-3.02h10.66v3.02h-10.66ZM179.48,40.33v-20.59c0-1.25.22-2.27.65-3.06.43-.79,1.06-1.37,1.87-1.73s1.8-.54,2.95-.54h2.12v3.06h-1.58c-.84,0-1.45.17-1.84.52-.38.35-.58.94-.58,1.78v20.56h-3.6Z" style="fill: #fff;"/>
        <path d="M197.69,40.33c-1.15,0-2.15-.18-2.99-.54-.84-.36-1.49-.96-1.94-1.8-.46-.84-.68-1.98-.68-3.42v-9.36h-3.13v-3.02h3.13l.47-4.57h3.13v4.57h5.11v3.02h-5.11v9.4c0,1.03.22,1.73.65,2.11.43.37,1.18.56,2.23.56h2.09v3.06h-2.95Z" style="fill: #fff;"/>
      </g>
    </g>
  </g>
</svg>